<svg width="512" height="512" viewBox="0 0 512 512" xmlns="http://www.w3.org/2000/svg">
  <defs>
    <linearGradient id="gradient" x1="0%" y1="0%" x2="100%" y2="100%">
      <stop offset="0%" style="stop-color:#007AFF;stop-opacity:1" />
      <stop offset="100%" style="stop-color:#5856D6;stop-opacity:1" />
    </linearGradient>
  </defs>
  
  <!-- Background circle -->
  <circle cx="256" cy="256" r="240" fill="url(#gradient)" stroke="#FFFFFF" stroke-width="8"/>
  
  <!-- Car icon -->
  <g transform="translate(256, 256)">
    <!-- Car body -->
    <rect x="-80" y="-30" width="160" height="60" rx="15" fill="#FFFFFF"/>
    
    <!-- Car windows -->
    <rect x="-60" y="-50" width="120" height="30" rx="10" fill="#FFFFFF" opacity="0.8"/>
    
    <!-- Wheels -->
    <circle cx="-45" cy="40" r="20" fill="#FFFFFF"/>
    <circle cx="45" cy="40" r="20" fill="#FFFFFF"/>
    <circle cx="-45" cy="40" r="12" fill="#007AFF"/>
    <circle cx="45" cy="40" r="12" fill="#007AFF"/>
    
    <!-- Headlights -->
    <circle cx="-80" cy="-15" r="8" fill="#FFD700"/>
    <circle cx="-80" cy="15" r="8" fill="#FF6B6B"/>
    
    <!-- Gallery/Media icon overlay -->
    <g transform="translate(0, -80)">
      <rect x="-30" y="-15" width="60" height="30" rx="5" fill="#FFFFFF" opacity="0.9"/>
      <rect x="-25" y="-10" width="20" height="15" rx="2" fill="#007AFF"/>
      <rect x="-2" y="-10" width="20" height="15" rx="2" fill="#5856D6"/>
      <rect x="5" y="-5" width="20" height="15" rx="2" fill="#34C759"/>
      
      <!-- Play button for video -->
      <polygon points="10,-2 10,8 20,3" fill="#FFFFFF"/>
    </g>
  </g>
</svg>